<svg width="35" height="35" viewBox="0 0 35 35" fill="none" xmlns="http://www.w3.org/2000/svg">
<path d="M17.499 3.16895C25.4149 3.16895 31.8328 9.58602 31.833 17.502C31.833 25.418 25.415 31.8359 17.499 31.8359C9.58309 31.8358 3.16602 25.4179 3.16602 17.502C3.16619 9.58613 9.5832 3.16912 17.499 3.16895ZM17.499 5.58594C10.9179 5.58611 5.58319 10.9208 5.58301 17.502C5.58301 23.579 10.1313 28.594 16.0098 29.3271L16.291 29.3613V20.1689H13.124C12.4569 20.1688 11.9162 19.628 11.916 18.9609C11.916 18.2937 12.4568 17.7521 13.124 17.752H16.291V14.5859C16.291 12.3078 18.1378 10.4609 20.416 10.4609H21.1455C21.8127 10.4611 22.3535 11.0017 22.3535 11.6689C22.3535 12.3362 21.8127 12.8768 21.1455 12.877H20.416C19.4725 12.877 18.708 13.6425 18.708 14.5859V17.752H21.874C22.5414 17.752 23.083 18.2936 23.083 18.9609C23.0828 19.6282 22.5413 20.1689 21.874 20.1689H18.708V29.3613L18.9883 29.3271C24.8669 28.5941 29.416 23.579 29.416 17.502C29.4158 10.9207 24.0803 5.58594 17.499 5.58594Z" fill="#333333" stroke="#F7F7F7" stroke-width="0.5"/>
</svg>
