<svg width="50" height="50" viewBox="0 0 50 50" fill="none" xmlns="http://www.w3.org/2000/svg">
<circle cx="25" cy="25" r="24.5" stroke="#EAEAEA"/>
<path d="M29.5 16.75C32.1667 16.75 34.25 18.8251 34.25 21.5C34.25 23.1384 33.5174 24.6887 32.0752 26.4531C30.6247 28.2276 28.5359 30.1264 25.9463 32.4746L25.9453 32.4756L25 33.335L24.0547 32.4756L24.0537 32.4746L22.207 30.792C20.4593 29.1844 19.0125 27.7838 17.9248 26.4531C16.4826 24.6887 15.75 23.1384 15.75 21.5C15.75 18.8251 17.8333 16.75 20.5 16.75C22.0132 16.75 23.4779 17.4583 24.4307 18.5684L25 19.2314L25.5693 18.5684C26.5221 17.4583 27.9868 16.75 29.5 16.75Z" stroke="#333333" stroke-width="1.5"/>
</svg>
