<svg width="30" height="30" viewBox="0 0 30 30" fill="none" xmlns="http://www.w3.org/2000/svg">
<path d="M20.625 4.5C24.0617 4.5 26.75 7.17761 26.75 10.625C26.75 12.7347 25.8049 14.7132 23.9893 16.9346C22.1654 19.1659 19.542 21.5494 16.3086 24.4814L16.3076 24.4824L15 25.6729L13.6924 24.4824L13.6914 24.4814L11.3838 22.3799C9.19618 20.3678 7.37874 18.6082 6.01074 16.9346C4.19508 14.7132 3.25 12.7347 3.25 10.625C3.25 7.17761 5.93832 4.5 9.375 4.5C11.3233 4.5 13.2054 5.41125 14.4307 6.83887L15 7.50195L15.5693 6.83887C16.7946 5.41125 18.6767 4.5 20.625 4.5Z" stroke="white" stroke-width="1.5"/>
</svg>
