<svg width="35" height="35" viewBox="0 0 35 35" fill="none" xmlns="http://www.w3.org/2000/svg">
<path d="M11.667 4.625L23.333 4.625C27.222 4.625 30.375 7.77799 30.375 11.667V23.333C30.375 27.222 27.222 30.375 23.333 30.375H11.667C7.77799 30.375 4.625 27.222 4.625 23.333L4.625 11.667L4.63379 11.3047C4.81612 7.70379 7.70379 4.81612 11.3047 4.63379L11.667 4.625ZM11.667 7.04199C9.11268 7.04199 7.04199 9.11268 7.04199 11.667L7.04199 23.333C7.04199 25.8874 9.11268 27.958 11.667 27.958H23.333C25.8874 27.958 27.958 25.8874 27.958 23.333V11.667C27.958 9.11268 25.8874 7.04199 23.333 7.04199L11.667 7.04199ZM17.5 11.917C20.5835 11.917 23.083 14.4164 23.083 17.5C23.083 20.5835 20.5835 23.083 17.5 23.083C14.4164 23.083 11.917 20.5835 11.917 17.5C11.917 14.4164 14.4164 11.917 17.5 11.917ZM17.5 14.333C15.7511 14.333 14.333 15.7511 14.333 17.5C14.333 19.2489 15.7511 20.667 17.5 20.667C19.2489 20.667 20.667 19.2489 20.667 17.5C20.667 15.7511 19.2489 14.333 17.5 14.333ZM24.0625 9.72949C24.7299 9.72949 25.2705 10.2702 25.2705 10.9375C25.2705 11.6048 24.7299 12.1455 24.0625 12.1455C23.3951 12.1455 22.8545 11.6048 22.8545 10.9375C22.8545 10.2702 23.3951 9.72949 24.0625 9.72949Z" fill="#333333" stroke="#F7F7F7" stroke-width="0.5"/>
</svg>
