<svg width="102" height="102" viewBox="0 0 102 102" fill="none" xmlns="http://www.w3.org/2000/svg">
<circle cx="51" cy="51" r="51" fill="#E1AF93"/>
<path d="M34.433 51.75C34.433 52.9867 34.5496 54.1183 34.783 55.145C35.0163 56.1483 35.3546 57.0233 35.798 57.77C36.2413 58.4933 36.7663 59.0533 37.373 59.45C37.9796 59.8467 38.6563 60.045 39.403 60.045C40.173 60.045 40.8613 59.8467 41.468 59.45C42.0746 59.0533 42.5996 58.4933 43.043 57.77C43.4863 57.0233 43.8246 56.1483 44.058 55.145C44.2913 54.1183 44.408 52.9867 44.408 51.75C44.408 50.5133 44.2913 49.3933 44.058 48.39C43.8246 47.3633 43.4863 46.4883 43.043 45.765C42.5996 45.0183 42.0746 44.4467 41.468 44.05C40.8613 43.6533 40.173 43.455 39.403 43.455C38.6563 43.455 37.9796 43.6533 37.373 44.05C36.7663 44.4467 36.2413 45.0183 35.798 45.765C35.3546 46.4883 35.0163 47.3633 34.783 48.39C34.5496 49.3933 34.433 50.5133 34.433 51.75ZM29.568 51.75C29.568 49.16 29.9763 46.92 30.793 45.03C31.633 43.14 32.788 41.6817 34.258 40.655C35.7513 39.605 37.4663 39.08 39.403 39.08C41.4096 39.08 43.148 39.605 44.618 40.655C46.088 41.6817 47.2313 43.14 48.048 45.03C48.8646 46.92 49.273 49.16 49.273 51.75C49.273 54.34 48.8646 56.58 48.048 58.47C47.2313 60.36 46.088 61.83 44.618 62.88C43.148 63.9067 41.4096 64.42 39.403 64.42C37.4663 64.42 35.7513 63.9067 34.258 62.88C32.788 61.83 31.633 60.36 30.793 58.47C29.9763 56.58 29.568 54.34 29.568 51.75ZM51.2182 59.485L65.2532 39.5H68.6482V64H63.5032V57.84L63.9232 57.455V47.48L58.1482 55.74H66.8982L67.4932 55.215H72.4982V59.485H51.2182Z" fill="white"/>
</svg>
