<svg width="102" height="102" viewBox="0 0 102 102" fill="none" xmlns="http://www.w3.org/2000/svg">
<circle cx="51" cy="51" r="51" fill="#E1AF93"/>
<path d="M37.265 51.75C37.265 52.9867 37.3817 54.1183 37.615 55.145C37.8483 56.1483 38.1867 57.0233 38.63 57.77C39.0733 58.4933 39.5983 59.0533 40.205 59.45C40.8117 59.8467 41.4883 60.045 42.235 60.045C43.005 60.045 43.6933 59.8467 44.3 59.45C44.9067 59.0533 45.4317 58.4933 45.875 57.77C46.3183 57.0233 46.6567 56.1483 46.89 55.145C47.1233 54.1183 47.24 52.9867 47.24 51.75C47.24 50.5133 47.1233 49.3933 46.89 48.39C46.6567 47.3633 46.3183 46.4883 45.875 45.765C45.4317 45.0183 44.9067 44.4467 44.3 44.05C43.6933 43.6533 43.005 43.455 42.235 43.455C41.4883 43.455 40.8117 43.6533 40.205 44.05C39.5983 44.4467 39.0733 45.0183 38.63 45.765C38.1867 46.4883 37.8483 47.3633 37.615 48.39C37.3817 49.3933 37.265 50.5133 37.265 51.75ZM32.4 51.75C32.4 49.16 32.8083 46.92 33.625 45.03C34.465 43.14 35.62 41.6817 37.09 40.655C38.5833 39.605 40.2983 39.08 42.235 39.08C44.2417 39.08 45.98 39.605 47.45 40.655C48.92 41.6817 50.0633 43.14 50.88 45.03C51.6967 46.92 52.105 49.16 52.105 51.75C52.105 54.34 51.6967 56.58 50.88 58.47C50.0633 60.36 48.92 61.83 47.45 62.88C45.98 63.9067 44.2417 64.42 42.235 64.42C40.2983 64.42 38.5833 63.9067 37.09 62.88C35.62 61.83 34.465 60.36 33.625 58.47C32.8083 56.58 32.4 54.34 32.4 51.75ZM55.9752 45.87V41.355L66.7202 39.08V64H61.8552V44.33L55.9752 45.87Z" fill="white"/>
</svg>
