<svg width="102" height="102" viewBox="0 0 102 102" fill="none" xmlns="http://www.w3.org/2000/svg">
<circle cx="51" cy="51" r="51" fill="#E1AF93"/>
<path d="M35.514 51.75C35.514 52.9867 35.6307 54.1183 35.864 55.145C36.0974 56.1483 36.4357 57.0233 36.879 57.77C37.3224 58.4933 37.8474 59.0533 38.454 59.45C39.0607 59.8467 39.7374 60.045 40.484 60.045C41.254 60.045 41.9424 59.8467 42.549 59.45C43.1557 59.0533 43.6807 58.4933 44.124 57.77C44.5674 57.0233 44.9057 56.1483 45.139 55.145C45.3724 54.1183 45.489 52.9867 45.489 51.75C45.489 50.5133 45.3724 49.3933 45.139 48.39C44.9057 47.3633 44.5674 46.4883 44.124 45.765C43.6807 45.0183 43.1557 44.4467 42.549 44.05C41.9424 43.6533 41.254 43.455 40.484 43.455C39.7374 43.455 39.0607 43.6533 38.454 44.05C37.8474 44.4467 37.3224 45.0183 36.879 45.765C36.4357 46.4883 36.0974 47.3633 35.864 48.39C35.6307 49.3933 35.514 50.5133 35.514 51.75ZM30.649 51.75C30.649 49.16 31.0574 46.92 31.874 45.03C32.714 43.14 33.869 41.6817 35.339 40.655C36.8324 39.605 38.5474 39.08 40.484 39.08C42.4907 39.08 44.229 39.605 45.699 40.655C47.169 41.6817 48.3124 43.14 49.129 45.03C49.9457 46.92 50.354 49.16 50.354 51.75C50.354 54.34 49.9457 56.58 49.129 58.47C48.3124 60.36 47.169 61.83 45.699 62.88C44.229 63.9067 42.4907 64.42 40.484 64.42C38.5474 64.42 36.8324 63.9067 35.339 62.88C33.869 61.83 32.714 60.36 31.874 58.47C31.0574 56.58 30.649 54.34 30.649 51.75ZM52.4393 64L63.5693 52.38C64.1993 51.7033 64.7359 51.0733 65.1793 50.49C65.6226 49.9067 65.9609 49.3233 66.1943 48.74C66.4276 48.1567 66.5443 47.55 66.5443 46.92C66.5443 46.4767 66.4626 46.045 66.2993 45.625C66.1359 45.205 65.8909 44.8317 65.5643 44.505C65.2376 44.1783 64.8409 43.9217 64.3743 43.735C63.9076 43.525 63.3709 43.42 62.7643 43.42C61.9009 43.42 61.1543 43.63 60.5243 44.05C59.9176 44.4467 59.4393 45.0183 59.0893 45.765C58.7626 46.5117 58.5993 47.375 58.5993 48.355H53.6993C53.6993 46.605 54.0493 45.03 54.7493 43.63C55.4493 42.23 56.4759 41.1217 57.8293 40.305C59.2059 39.465 60.8859 39.045 62.8693 39.045C64.3393 39.045 65.6226 39.2783 66.7193 39.745C67.8393 40.1883 68.7609 40.7833 69.4843 41.53C70.2309 42.2533 70.7793 43.0583 71.1293 43.945C71.5026 44.8317 71.6893 45.7183 71.6893 46.605C71.6893 47.9117 71.3743 49.1367 70.7443 50.28C70.1143 51.4233 69.2859 52.4617 68.2593 53.395L61.8893 59.415H72.1443V64H52.4393Z" fill="white"/>
</svg>
