<svg width="102" height="102" viewBox="0 0 102 102" fill="none" xmlns="http://www.w3.org/2000/svg">
<circle cx="51" cy="51" r="51" fill="#E1AF93"/>
<path d="M35.578 51.75C35.578 52.9867 35.6947 54.1183 35.928 55.145C36.1613 56.1483 36.4997 57.0233 36.943 57.77C37.3863 58.4933 37.9113 59.0533 38.518 59.45C39.1247 59.8467 39.8013 60.045 40.548 60.045C41.318 60.045 42.0063 59.8467 42.613 59.45C43.2197 59.0533 43.7447 58.4933 44.188 57.77C44.6313 57.0233 44.9697 56.1483 45.203 55.145C45.4363 54.1183 45.553 52.9867 45.553 51.75C45.553 50.5133 45.4363 49.3933 45.203 48.39C44.9697 47.3633 44.6313 46.4883 44.188 45.765C43.7447 45.0183 43.2197 44.4467 42.613 44.05C42.0063 43.6533 41.318 43.455 40.548 43.455C39.8013 43.455 39.1247 43.6533 38.518 44.05C37.9113 44.4467 37.3863 45.0183 36.943 45.765C36.4997 46.4883 36.1613 47.3633 35.928 48.39C35.6947 49.3933 35.578 50.5133 35.578 51.75ZM30.713 51.75C30.713 49.16 31.1213 46.92 31.938 45.03C32.778 43.14 33.933 41.6817 35.403 40.655C36.8963 39.605 38.6113 39.08 40.548 39.08C42.5547 39.08 44.293 39.605 45.763 40.655C47.233 41.6817 48.3763 43.14 49.193 45.03C50.0097 46.92 50.418 49.16 50.418 51.75C50.418 54.34 50.0097 56.58 49.193 58.47C48.3763 60.36 47.233 61.83 45.763 62.88C44.293 63.9067 42.5547 64.42 40.548 64.42C38.6113 64.42 36.8963 63.9067 35.403 62.88C33.933 61.83 32.778 60.36 31.938 58.47C31.1213 56.58 30.713 54.34 30.713 51.75ZM61.1832 52.065V49.65C61.9066 49.65 62.5482 49.5567 63.1082 49.37C63.6916 49.1833 64.1816 48.9267 64.5782 48.6C64.9749 48.25 65.2782 47.865 65.4882 47.445C65.7216 47.0017 65.8382 46.5467 65.8382 46.08C65.8382 45.4967 65.7216 44.9833 65.4882 44.54C65.2549 44.0967 64.9166 43.7583 64.4732 43.525C64.0299 43.2917 63.4582 43.175 62.7582 43.175C61.7782 43.175 60.9499 43.4783 60.2732 44.085C59.6199 44.6683 59.2932 45.415 59.2932 46.325H54.6382C54.6382 44.925 54.9766 43.6883 55.6532 42.615C56.3532 41.5183 57.3099 40.655 58.5232 40.025C59.7366 39.395 61.1482 39.08 62.7582 39.08C64.4616 39.08 65.9082 39.3833 67.0982 39.99C68.3116 40.5967 69.2332 41.4017 69.8632 42.405C70.4932 43.4083 70.8082 44.5283 70.8082 45.765C70.8082 47.095 70.3882 48.2383 69.5482 49.195C68.7082 50.1283 67.5649 50.84 66.1182 51.33C64.6716 51.82 63.0266 52.065 61.1832 52.065ZM62.5482 64.49C61.1482 64.49 59.8999 64.28 58.8032 63.86C57.7066 63.44 56.7732 62.8683 56.0032 62.145C55.2332 61.3983 54.6382 60.5583 54.2182 59.625C53.7982 58.6683 53.5882 57.665 53.5882 56.615H58.5582C58.5582 57.4083 58.7449 58.085 59.1182 58.645C59.4916 59.205 59.9932 59.6367 60.6232 59.94C61.2532 60.22 61.9416 60.36 62.6882 60.36C63.4582 60.36 64.1232 60.2317 64.6832 59.975C65.2666 59.695 65.7216 59.2983 66.0482 58.785C66.3749 58.2717 66.5382 57.63 66.5382 56.86C66.5382 56.3 66.4216 55.7867 66.1882 55.32C65.9549 54.83 65.6049 54.4217 65.1382 54.095C64.6949 53.7683 64.1349 53.5233 63.4582 53.36C62.8049 53.1733 62.0466 53.08 61.1832 53.08V50.42C62.6766 50.42 64.0416 50.5483 65.2782 50.805C66.5382 51.0617 67.6349 51.4817 68.5682 52.065C69.5016 52.625 70.2249 53.3483 70.7382 54.235C71.2516 55.0983 71.5082 56.1483 71.5082 57.385C71.5082 58.785 71.1349 60.0217 70.3882 61.095C69.6649 62.1683 68.6266 63.0083 67.2732 63.615C65.9432 64.1983 64.3682 64.49 62.5482 64.49Z" fill="white"/>
</svg>
