<svg width="50" height="50" viewBox="0 0 50 50" fill="none" xmlns="http://www.w3.org/2000/svg">
<circle cx="25" cy="25" r="24.5" stroke="#EAEAEA"/>
<path d="M31.6541 30.595L34.5836 33.523C34.7202 33.6645 34.7958 33.8539 34.7941 34.0506C34.7924 34.2472 34.7135 34.4353 34.5745 34.5744C34.4354 34.7134 34.2473 34.7923 34.0507 34.794C33.854 34.7957 33.6646 34.7201 33.5231 34.5835L30.5936 31.654C28.6793 33.2942 26.204 34.1291 23.6873 33.9836C21.1707 33.8382 18.8081 32.7236 17.0955 30.8737C15.3829 29.0239 14.4533 26.5827 14.5018 24.0622C14.5503 21.5418 15.5732 19.1381 17.3557 17.3556C19.1383 15.573 21.5419 14.5502 24.0624 14.5017C26.5828 14.4532 29.024 15.3828 30.8739 17.0954C32.7237 18.808 33.8383 21.1705 33.9838 23.6872C34.1292 26.2039 33.2943 28.6791 31.6541 30.5935V30.595ZM24.2501 32.5C26.4382 32.5 28.5366 31.6308 30.0838 30.0836C31.6309 28.5365 32.5001 26.438 32.5001 24.25C32.5001 22.062 31.6309 19.9635 30.0838 18.4164C28.5366 16.8692 26.4382 16 24.2501 16C22.0621 16 19.9637 16.8692 18.4165 18.4164C16.8693 19.9635 16.0001 22.062 16.0001 24.25C16.0001 26.438 16.8693 28.5365 18.4165 30.0836C19.9637 31.6308 22.0621 32.5 24.2501 32.5Z" fill="#333333"/>
</svg>
