<svg width="178" height="61" viewBox="0 0 178 61" fill="none" xmlns="http://www.w3.org/2000/svg">
<path d="M23.9971 0.0498047V59.9658H0.0810547V0.0498047H23.9971Z" fill="#CB9B81" stroke="white" stroke-width="0.0846676"/>
<path d="M24.0391 31.6767C20.0553 46.3307 16.1686 53.4949 11.9905 60.0078H0.0390625V0.0078125H24.0391V31.6767Z" fill="#DCA98C"/>
<path d="M24.0391 0.0078125C18.2868 34.5261 5.70708 54.3362 0.0390625 60.0078V0.0078125H24.0391Z" fill="#E1AF93"/>
<path d="M14.0391 0.0078125C11.878 14.9903 3.51557 35.54 0.0390625 42.0078V0.0078125H14.0391Z" fill="#DCA98C"/>
<path d="M5.03906 0.0078125C3.22088 9.18578 3.12997 10.4739 0.0390625 19.0078V0.0078125H5.03906Z" fill="#CB9B81"/>
<path d="M0.0390625 60.0078C5.70708 54.3362 18.2868 34.5261 24.0391 0.0078125" stroke="white" stroke-width="0.0846676"/>
<path d="M0.0390625 20.0078C3.12997 11.0248 3.22088 9.66883 5.03906 0.0078125" stroke="white" stroke-width="0.0846676"/>
<path d="M12.0391 60.0078C16.2004 53.571 20.0713 46.4906 24.0391 32.0078" stroke="white" stroke-width="0.0846676"/>
<path d="M0.0390625 42.0078C3.51557 35.54 11.878 14.9903 14.0391 0.0078125" stroke="white" stroke-width="0.0846676"/>
<path d="M42.9594 28.5059L37.8618 21.2549H36.1699V28.1982H34.0166V13.6524H38.7627C39.7148 13.6524 40.5717 13.7989 41.3335 14.0919C42.0952 14.3702 42.6958 14.7877 43.1352 15.3443C43.5893 15.8863 43.8164 16.5601 43.8164 17.3658C43.8164 18.4058 43.4209 19.2334 42.6298 19.8487C41.8388 20.4493 40.8354 20.8594 39.6196 21.0791L45.5082 28.1982L42.9594 28.5059ZM36.1699 20.5957H37.5761C38.6455 20.5957 39.4585 20.4419 40.0151 20.1343C40.5864 19.8267 40.9819 19.4385 41.2016 18.9698C41.4213 18.4864 41.5312 17.9883 41.5312 17.4756C41.5312 17.4024 41.5092 17.2413 41.4653 16.9922C41.436 16.7286 41.3481 16.4356 41.2016 16.1133C41.0551 15.7764 40.8134 15.4615 40.4765 15.1685C40.1543 14.8609 39.7002 14.6265 39.1142 14.4654C38.6894 14.4654 38.1841 14.502 37.5981 14.5753C37.0268 14.6485 36.5508 14.7364 36.1699 14.8389V20.5957ZM47.8526 28.1982L48.6656 13.6524H50.709L55.7847 24.7485L60.6406 13.6524H62.8818L63.6948 28.1982H61.4536L60.8604 15.6959H60.7725L55.2354 28.1982H54.9278L49.5006 16.2012H49.4127L48.8194 28.1982H47.8526ZM74.2564 28.4619C73.2017 28.4619 72.191 28.3228 71.2242 28.0444C70.2574 27.7515 69.3932 27.312 68.6314 26.7261C67.8844 26.1255 67.2911 25.3784 66.8517 24.4849C66.4122 23.5913 66.1925 22.5366 66.1925 21.3208C66.1925 19.9146 66.4415 18.7134 66.9396 17.7173C67.4523 16.7066 68.1261 15.8863 68.961 15.2564C69.796 14.6119 70.7115 14.1431 71.7076 13.8502C72.7037 13.5425 73.6851 13.3887 74.6519 13.3887C75.106 13.3887 75.5821 13.4254 76.0801 13.4986C76.5782 13.5718 77.0396 13.6597 77.4644 13.7623C77.8892 13.8648 78.2188 13.96 78.4532 14.0479L78.2335 15.542C77.4424 15.2051 76.6588 14.9122 75.8824 14.6631C75.1207 14.4141 74.2638 14.2896 73.3116 14.2896C71.7589 14.6412 70.5724 15.4102 69.7521 16.5967C68.9317 17.7686 68.5216 19.2261 68.5216 20.9693C68.5216 22.4341 68.7853 23.6719 69.3126 24.6826C69.8546 25.6787 70.587 26.4331 71.5099 26.9458C72.4327 27.4439 73.4874 27.6929 74.6739 27.6929C75.4503 27.6929 76.2193 27.5977 76.981 27.4072C77.7427 27.2022 78.3506 26.9019 78.8047 26.5064V27.7148C78.3653 27.8906 77.8746 28.0371 77.3326 28.1543C76.7906 28.2568 76.2486 28.3301 75.7066 28.374C75.1793 28.4326 74.6959 28.4619 74.2564 28.4619ZM86.931 28.1982V13.6524H91.0838C92.0652 13.6524 93.054 13.7916 94.0501 14.0699C95.0462 14.3336 95.9617 14.773 96.7967 15.3882C97.6316 15.9888 98.2981 16.7798 98.7962 17.7613C99.3089 18.7281 99.5652 19.9146 99.5652 21.3208C99.5652 22.5366 99.3455 23.584 98.906 24.4629C98.4666 25.3272 97.866 26.0376 97.1043 26.5942C96.3572 27.1362 95.5003 27.5391 94.5335 27.8027C93.5667 28.0664 92.556 28.1982 91.5013 28.1982H86.931ZM91.0618 27.4512C92.2484 27.4512 93.303 27.2168 94.2259 26.7481C95.1634 26.2793 95.8958 25.5689 96.4231 24.6167C96.9651 23.6499 97.2361 22.4341 97.2361 20.9693C97.2361 19.8413 97.0237 18.8306 96.5989 17.9371C96.1888 17.0435 95.6175 16.2964 94.8851 15.6959C94.1673 15.0953 93.347 14.6778 92.4241 14.4434C91.9114 14.4434 91.3255 14.4874 90.6663 14.5753C90.0218 14.6631 89.4945 14.773 89.0843 14.9048V27.2534C89.2894 27.312 89.5823 27.3633 89.9632 27.4072C90.3441 27.4365 90.7103 27.4512 91.0618 27.4512ZM102.488 28.1982V13.6524H111.299L111.079 15.1246L106.992 14.4434C106.567 14.4434 106.172 14.48 105.806 14.5533C105.439 14.6119 105.044 14.6998 104.619 14.8169V20.1563H109.497V20.9912H104.619V27.4072L111.431 26.7261L111.211 28.1982H102.488ZM120.319 28.1982V13.6524H122.472V27.0117C122.853 27.1143 123.234 27.2095 123.615 27.2974C124.01 27.3706 124.347 27.4072 124.626 27.4072L128.603 26.7261L128.339 28.1982H120.319ZM136.146 28.4619C135.062 28.4619 134.176 28.3154 133.487 28.0225C132.799 27.7148 132.257 27.334 131.861 26.8799C131.48 26.4111 131.209 25.9204 131.048 25.4077C130.887 24.8804 130.785 24.3897 130.741 23.9356C130.711 23.4815 130.697 23.1226 130.697 22.8589V13.6524H132.938V23.0347C132.938 23.313 132.945 23.6499 132.96 24.0454C132.989 24.4263 133.062 24.8145 133.18 25.21C133.297 25.6055 133.487 25.979 133.751 26.3306C134.029 26.6821 134.41 26.9678 134.893 27.1875C135.377 27.3926 135.999 27.4951 136.761 27.4951C138.021 27.4951 139.017 27.1582 139.749 26.4844C140.496 25.8106 140.87 24.6826 140.87 23.1006V13.6524H141.837V22.5733C141.837 22.9248 141.815 23.3496 141.771 23.8477C141.742 24.3457 141.639 24.8657 141.463 25.4077C141.302 25.9351 141.017 26.4331 140.606 26.9019C140.211 27.3706 139.654 27.7515 138.936 28.0444C138.219 28.3228 137.289 28.4619 136.146 28.4619ZM144.149 28.1982L149.642 21.145L144.413 13.6524H147.159L150.807 19.6949L155.377 13.6524H156.717L151.29 20.376L157.025 28.1982H154.278L150.147 21.7823L145.489 28.1982H144.149ZM159.672 28.1982V13.6524H168.483L168.263 15.1246L164.177 14.4434C163.752 14.4434 163.356 14.48 162.99 14.5533C162.624 14.6119 162.228 14.6998 161.804 14.8169V20.1563H166.681V20.9912H161.804V27.4072L168.615 26.7261L168.395 28.1982H159.672Z" fill="#333333"/>
<path d="M34.2539 43.3635C34.4077 43.0354 34.6589 42.7227 35.0076 42.4253C35.3664 42.1177 35.7253 41.9639 36.0842 41.9639C36.3098 41.9639 36.479 41.9947 36.5918 42.0562V43.3174C36.3662 43.0405 36.0483 42.9021 35.6382 42.9021C35.2075 42.9021 34.8691 43.0918 34.623 43.4712C34.3769 43.8403 34.2539 44.3172 34.2539 44.9016V46.1475C34.2539 46.7217 34.3205 47.1165 34.4538 47.3318C34.5871 47.5471 34.7153 47.665 34.8384 47.6855H32.6697C32.7927 47.665 32.9209 47.5522 33.0542 47.3472C33.1977 47.1318 33.2695 46.7319 33.2695 46.1475V43.825C33.2695 43.3943 33.1977 43.1021 33.0542 42.9483C32.9209 42.7842 32.7671 42.7022 32.5928 42.7022L34.2539 41.9639V43.3635ZM39.7804 47.8701C39.2267 47.8701 38.7499 47.7368 38.35 47.4702C37.9501 47.1934 37.6425 46.8396 37.4271 46.4089C37.2221 45.968 37.1195 45.5015 37.1195 45.0093C37.1195 44.3735 37.2426 43.825 37.4887 43.3635C37.745 42.9021 38.0731 42.5535 38.473 42.3176C38.8729 42.0818 39.2882 41.9639 39.7189 41.9639C40.3341 41.9639 40.8622 42.1895 41.3031 42.6406C41.7543 43.0816 42.0004 43.6968 42.0414 44.4863H38.0424C38.0424 44.9785 38.1347 45.4143 38.3192 45.7937C38.5038 46.1628 38.7499 46.45 39.0575 46.655C39.3754 46.8499 39.7189 46.9473 40.088 46.9473C41.0519 46.9473 41.703 46.6397 42.0414 46.0244C41.9491 46.5781 41.6979 47.0242 41.2877 47.3626C40.8776 47.7009 40.3751 47.8701 39.7804 47.8701ZM39.6112 42.4715C39.2113 42.4715 38.8678 42.615 38.5807 42.9021C38.2936 43.179 38.1193 43.543 38.0578 43.9942H40.8571C40.8571 43.5225 40.7289 43.1533 40.4725 42.8867C40.2265 42.6099 39.9393 42.4715 39.6112 42.4715ZM47.4461 47.8701C47.1179 47.8599 46.8411 47.7727 46.6155 47.6086C46.3899 47.4446 46.2617 47.2549 46.231 47.0396C46.0464 47.3062 45.8003 47.5112 45.4927 47.6548C45.1953 47.7983 44.898 47.8701 44.6006 47.8701C44.1289 47.8701 43.7342 47.7368 43.4163 47.4702C43.0984 47.1934 42.9395 46.8345 42.9395 46.3936C42.9395 45.2554 44.0059 44.6863 46.1387 44.6863V44.5171C46.1387 43.9531 46.0567 43.5379 45.8926 43.2713C45.667 42.8919 45.2979 42.7022 44.7852 42.7022C44.3853 42.7022 44.052 42.8201 43.7854 43.0559C43.5291 43.2918 43.4009 43.5994 43.4009 43.9788C43.3394 43.8762 43.2881 43.784 43.2471 43.7019C43.2163 43.6199 43.201 43.5071 43.201 43.3635C43.201 42.9944 43.3753 42.6714 43.7239 42.3946C44.0725 42.1074 44.5288 41.9639 45.0928 41.9639C45.8926 41.9639 46.4617 42.2305 46.8001 42.7637C46.9129 42.9278 46.9949 43.1328 47.0462 43.3789C47.0974 43.625 47.1231 43.948 47.1231 44.3479V46.1782C47.1231 46.4961 47.2102 46.7422 47.3845 46.9165C47.5691 47.0908 47.8254 47.178 48.1536 47.178H48.3535L47.4461 47.8701ZM46.1387 45.1477C45.3184 45.1477 44.7647 45.2503 44.4776 45.4553C44.1905 45.6604 44.0469 45.9373 44.0469 46.2859C44.0469 46.573 44.1238 46.7986 44.2776 46.9626C44.4314 47.1267 44.6365 47.2087 44.8928 47.2087C45.0877 47.2087 45.2722 47.1626 45.4466 47.0703C45.6209 46.978 45.7695 46.8499 45.8926 46.6858C46.0567 46.4705 46.1387 46.1782 46.1387 45.8091V45.1477ZM49.1286 38.2264C49.1286 37.7957 49.0568 37.5035 48.9132 37.3497C48.7799 37.1856 48.6261 37.1036 48.4518 37.1036H48.3595L50.1129 36.3038V46.1475C50.1129 46.5986 50.1591 46.937 50.2514 47.1626C50.3437 47.3882 50.4462 47.542 50.559 47.624C50.6718 47.6958 50.7282 47.7163 50.7282 47.6855H48.5133C48.5133 47.7163 48.5697 47.6958 48.6825 47.624C48.7953 47.542 48.8979 47.3882 48.9901 47.1626C49.0824 46.9268 49.1286 46.5884 49.1286 46.1475V38.2264ZM57.6263 47.8701C57.0726 47.8701 56.5958 47.7368 56.1959 47.4702C55.796 47.1934 55.4884 46.8396 55.2731 46.4089C55.068 45.968 54.9655 45.5015 54.9655 45.0093C54.9655 44.3735 55.0885 43.825 55.3346 43.3635C55.5909 42.9021 55.9191 42.5535 56.319 42.3176C56.7189 42.0818 57.1342 41.9639 57.5648 41.9639C58.18 41.9639 58.7081 42.1895 59.149 42.6406C59.6002 43.0816 59.8463 43.6968 59.8873 44.4863H55.8883C55.8883 44.9785 55.9806 45.4143 56.1652 45.7937C56.3497 46.1628 56.5958 46.45 56.9034 46.655C57.2213 46.8499 57.5648 46.9473 57.934 46.9473C58.8978 46.9473 59.5489 46.6397 59.8873 46.0244C59.795 46.5781 59.5438 47.0242 59.1337 47.3626C58.7235 47.7009 58.2211 47.8701 57.6263 47.8701ZM57.4572 42.4715C57.0572 42.4715 56.7137 42.615 56.4266 42.9021C56.1395 43.179 55.9652 43.543 55.9037 43.9942H58.703C58.703 43.5225 58.5748 43.1533 58.3185 42.8867C58.0724 42.6099 57.7853 42.4715 57.4572 42.4715ZM62.6772 47.8701C62.3696 47.8701 62.0518 47.8188 61.7236 47.7163C61.3955 47.6138 61.1238 47.4805 60.9085 47.3164V45.9629C61.1033 46.4448 61.3648 46.7935 61.6929 47.0088C62.0313 47.2139 62.3953 47.3164 62.7849 47.3164C63.1028 47.3164 63.3591 47.2292 63.554 47.0549C63.759 46.8806 63.8616 46.6909 63.8616 46.4858C63.8616 46.2603 63.759 46.0706 63.554 45.9168C63.3489 45.7629 63.0361 45.5886 62.6157 45.3938C62.0723 45.1375 61.6519 44.8862 61.3545 44.6401C61.0571 44.3941 60.9085 44.0608 60.9085 43.6404C60.9085 43.179 61.0828 42.7842 61.4314 42.4561C61.78 42.128 62.2363 41.9639 62.8003 41.9639C63.1899 41.9639 63.5283 42.01 63.8154 42.1023C64.1025 42.1946 64.3179 42.2971 64.4614 42.4099L64.2153 43.5635C64.0923 43.2149 63.8872 42.9534 63.6001 42.7791C63.313 42.6048 63.0105 42.5176 62.6926 42.5176C62.4158 42.5176 62.1851 42.5996 62.0005 42.7637C61.8262 42.9278 61.739 43.1123 61.739 43.3174C61.739 43.5943 61.8467 43.8147 62.062 43.9788C62.2876 44.1428 62.626 44.3223 63.0771 44.5171C63.6104 44.7427 64.0154 44.9734 64.2922 45.2092C64.5793 45.4348 64.7229 45.7578 64.7229 46.1782C64.7229 46.4756 64.6409 46.7524 64.4768 47.0088C64.3127 47.2651 64.0718 47.4753 63.7539 47.6394C63.4463 47.7932 63.0874 47.8701 62.6772 47.8701ZM67.626 47.8701C67.1236 47.8701 66.7442 47.7009 66.4878 47.3626C66.2315 47.0139 66.1033 46.5986 66.1033 46.1167V42.7022H65.242L67.0877 40.6104V42.0869H69.0564V42.7022H67.0877V45.9475C67.0877 46.3372 67.1902 46.6345 67.3953 46.8396C67.6004 47.0344 67.8362 47.1318 68.1028 47.1318C68.3079 47.1318 68.5079 47.0703 68.7027 46.9473C68.8975 46.8242 69.0564 46.655 69.1795 46.4397C69.0257 47.3933 68.5079 47.8701 67.626 47.8701ZM74.3276 47.8701C73.9995 47.8599 73.7226 47.7727 73.497 47.6086C73.2715 47.4446 73.1433 47.2549 73.1125 47.0396C72.9279 47.3062 72.6819 47.5112 72.3742 47.6548C72.0769 47.7983 71.7795 47.8701 71.4822 47.8701C71.0105 47.8701 70.6157 47.7368 70.2978 47.4702C69.98 47.1934 69.821 46.8345 69.821 46.3936C69.821 45.2554 70.8874 44.6863 73.0202 44.6863V44.5171C73.0202 43.9531 72.9382 43.5379 72.7741 43.2713C72.5486 42.8919 72.1794 42.7022 71.6667 42.7022C71.2668 42.7022 70.9336 42.8201 70.667 43.0559C70.4106 43.2918 70.2825 43.5994 70.2825 43.9788C70.2209 43.8762 70.1697 43.784 70.1286 43.7019C70.0979 43.6199 70.0825 43.5071 70.0825 43.3635C70.0825 42.9944 70.2568 42.6714 70.6054 42.3946C70.9541 42.1074 71.4104 41.9639 71.9743 41.9639C72.7741 41.9639 73.3432 42.2305 73.6816 42.7637C73.7944 42.9278 73.8764 43.1328 73.9277 43.3789C73.979 43.625 74.0046 43.948 74.0046 44.3479V46.1782C74.0046 46.4961 74.0918 46.7422 74.2661 46.9165C74.4506 47.0908 74.707 47.178 75.0351 47.178H75.2351L74.3276 47.8701ZM73.0202 45.1477C72.1999 45.1477 71.6462 45.2503 71.3591 45.4553C71.072 45.6604 70.9284 45.9373 70.9284 46.2859C70.9284 46.573 71.0053 46.7986 71.1592 46.9626C71.313 47.1267 71.518 47.2087 71.7744 47.2087C71.9692 47.2087 72.1538 47.1626 72.3281 47.0703C72.5024 46.978 72.6511 46.8499 72.7741 46.6858C72.9382 46.4705 73.0202 46.1782 73.0202 45.8091V45.1477ZM77.5328 47.8701C77.0304 47.8701 76.651 47.7009 76.3946 47.3626C76.1383 47.0139 76.0101 46.5986 76.0101 46.1167V42.7022H75.1488L76.9945 40.6104V42.0869H78.9632V42.7022H76.9945V45.9475C76.9945 46.3372 77.097 46.6345 77.3021 46.8396C77.5072 47.0344 77.743 47.1318 78.0096 47.1318C78.2147 47.1318 78.4146 47.0703 78.6095 46.9473C78.8043 46.8242 78.9632 46.655 79.0863 46.4397C78.9325 47.3933 78.4146 47.8701 77.5328 47.8701ZM82.2657 47.8701C81.7119 47.8701 81.2351 47.7368 80.8352 47.4702C80.4353 47.1934 80.1277 46.8396 79.9124 46.4089C79.7073 45.968 79.6048 45.5015 79.6048 45.0093C79.6048 44.3735 79.7278 43.825 79.9739 43.3635C80.2303 42.9021 80.5584 42.5535 80.9583 42.3176C81.3582 42.0818 81.7735 41.9639 82.2041 41.9639C82.8194 41.9639 83.3474 42.1895 83.7884 42.6406C84.2395 43.0816 84.4856 43.6968 84.5266 44.4863H80.5276C80.5276 44.9785 80.6199 45.4143 80.8045 45.7937C80.989 46.1628 81.2351 46.45 81.5428 46.655C81.8606 46.8499 82.2041 46.9473 82.5733 46.9473C83.5371 46.9473 84.1883 46.6397 84.5266 46.0244C84.4343 46.5781 84.1831 47.0242 83.773 47.3626C83.3628 47.7009 82.8604 47.8701 82.2657 47.8701ZM82.0965 42.4715C81.6966 42.4715 81.3531 42.615 81.066 42.9021C80.7788 43.179 80.6045 43.543 80.543 43.9942H83.3423C83.3423 43.5225 83.2141 43.1533 82.9578 42.8867C82.7117 42.6099 82.4246 42.4715 82.0965 42.4715Z" fill="#A6A6A6"/>
</svg>
