<svg width="35" height="35" viewBox="0 0 35 35" fill="none" xmlns="http://www.w3.org/2000/svg">
<path d="M28.9395 6.69141C30.3445 6.10018 31.8506 7.28875 31.6025 8.79297L28.2939 28.8545C28.0018 30.6255 26.0593 31.6347 24.4414 30.7559C22.9588 29.9506 20.7625 28.7129 18.7852 27.4209C17.7977 26.7756 16.8455 26.104 16.0576 25.4561C15.5421 25.0322 15.0426 24.5748 14.6494 24.1045L14.584 24.0264L14.4824 24.0166L13.918 23.9453C12.566 23.7423 10.9741 23.2877 9.48535 22.7969H9.48633C7.41729 22.1147 5.35179 21.2943 4.00098 20.7344C2.38988 20.0663 2.45373 17.8428 4.00098 17.1914L28.9395 6.69141ZM28.6592 9.43164L6.60352 18.7178L6.03711 18.957L6.60938 19.1807C7.70706 19.611 8.97756 20.0849 10.2422 20.502C11.8819 21.0425 13.3915 21.446 14.4854 21.5859L14.6074 21.6016L21.0205 15.1885C21.4924 14.7166 22.2576 14.7166 22.7295 15.1885C23.2013 15.6603 23.2013 16.4256 22.7295 16.8975L16.7715 22.8555L16.958 23.0322C17.1345 23.2 17.3447 23.3866 17.5918 23.5898C18.285 24.1599 19.1571 24.777 20.1064 25.3975C21.9838 26.624 24.0903 27.8133 25.5488 28.6064L25.8574 28.7744L25.915 28.4277L29.0029 9.70215L29.0771 9.25586L28.6592 9.43164Z" fill="#333333" stroke="#F7F7F7" stroke-width="0.5"/>
</svg>
