<svg width="35" height="35" viewBox="0 0 35 35" fill="none" xmlns="http://www.w3.org/2000/svg">
<path d="M17.499 3.16895C25.4149 3.16895 31.8328 9.58602 31.833 17.502C31.833 25.418 25.415 31.8359 17.499 31.8359C14.9725 31.8359 12.5962 31.1806 10.5332 30.0312L10.0879 29.7734L9.99512 29.7188L9.8916 29.749L5.46973 31.0498C4.64142 31.2932 3.86392 30.632 3.90137 29.8271L3.91992 29.665L3.95215 29.5312L5.25195 25.1104L5.2832 25.0039L5.22656 24.9102C3.91875 22.7476 3.16602 20.2107 3.16602 17.502C3.16619 9.58613 9.5832 3.16912 17.499 3.16895ZM17.499 5.58594C10.9179 5.58611 5.58319 10.9208 5.58301 17.502C5.58301 19.8504 6.26102 22.0374 7.43164 23.8809C7.68811 24.285 7.79658 24.7803 7.71094 25.2705L7.65723 25.4951L7.01758 27.6738L6.8877 28.1133L7.32715 27.9844L9.51758 27.3408C10.0756 27.1767 10.6582 27.2764 11.1211 27.5703C12.9645 28.7409 15.1507 29.4189 17.499 29.4189C24.0805 29.4189 29.416 24.0834 29.416 17.502C29.4158 10.9207 24.0803 5.58594 17.499 5.58594ZM13.3711 10.709C13.6103 10.6065 13.8977 10.6266 14.123 10.791C14.8255 11.3036 15.3909 11.9971 15.8877 12.6943V12.6934L16.3604 13.3789V13.3799C16.4359 13.4915 16.5109 13.602 16.584 13.709C16.7854 14.0035 16.7619 14.3938 16.5361 14.6611L16.4492 14.749L15.1182 15.7383C14.9189 15.8864 14.8295 16.1461 14.9062 16.3838L14.9502 16.4844C15.2619 17.0515 15.8176 17.8987 16.4609 18.542C17.1046 19.1857 17.9902 19.7765 18.5928 20.1211C18.8204 20.2511 19.0934 20.2073 19.2734 20.043L19.2852 20.0322L19.2949 20.0205L19.3516 19.9551L19.3613 19.9434L19.3701 19.9297L20.2373 18.6084C20.4917 18.27 20.9672 18.1947 21.3135 18.4336V18.4346L22.1025 18.9834V18.9844C22.8839 19.5421 23.6175 20.1289 24.1934 20.8662C24.3699 21.0923 24.3976 21.3896 24.291 21.6387C23.745 22.9129 22.3651 23.9782 20.9697 23.9268L20.7461 23.9141L20.4746 23.8867H20.4736C20.4283 23.8812 20.3815 23.875 20.333 23.8682H20.334L19.9922 23.8115C18.689 23.5653 16.5757 22.8228 14.3779 20.625C12.1798 18.4268 11.4365 16.3129 11.1904 15.0098L11.1348 14.6689L11.0996 14.377L11.0801 14.1367H11.0811C11.079 14.0998 11.0774 14.0649 11.0762 14.0322C11.0248 12.6352 12.0954 11.2557 13.3711 10.709Z" fill="#333333" stroke="#F7F7F7" stroke-width="0.5"/>
</svg>
